# File created by Blade
# Date/Time:  Wed Jan 28 16:58:26 2015
#---------------------------------------------------------
:version 1.10
:name HOM
:units
  mass 1.0
  length 1.000000
  angle deg
:documentation
     Acclaim Skeleton File
:root
   axis xyz
   order TX TY TZ RX RY RZ
   position 0.000000 0.000000 0.000000
   orientation 0 0 0
:bonedata
   begin
      id 1
      name Spine_dum
      direction 0.000000 1.000000 0.000000
      length 9.621153
      axis 0.0 0.0 0.0 xyz
   end
   begin
      id 2
      name LeftUpLeg_dum
      direction 1.000000 0.000000 0.000000
      length 2.700595
      axis 0.0 0.0 0.0 xyz
   end
   begin
      id 3
      name RightUpLeg_dum
      direction -1.000000 0.000000 0.000000
      length 2.700595
      axis 0.0 0.0 0.0 xyz
   end
   begin
      id 4
      name Spine
      direction 0.000000 1.000000 0.000000
      length 0.000000
      axis 0.0 0.0 0.0 xyz
      dof rx ry rz
   end
   begin
      id 5
      name Spine_dum1
      direction 0.000000 1.000000 0.000000
      length 12.771951
      axis 0.0 0.0 0.0 xyz
   end
   begin
      id 6
      name Spine_dum2
      direction 0.000000 1.000000 0.000000
      length 7.400569
      axis 0.0 0.0 0.0 xyz
   end
   begin
      id 7
      name Spine_dum3
      direction 0.000000 1.000000 0.000000
      length 7.400569
      axis 0.0 0.0 0.0 xyz
   end
   begin
      id 8
      name Head
      direction 0.000000 1.000000 0.000000
      length 4.527550
      axis 0.0 0.0 0.0 xyz
      dof rx ry rz
   end
   begin
      id 9
      name LeftShoulder
      direction 1.000000 0.000000 0.000000
      length 8.349299
      axis 0.0 0.0 -90.0 xyz
      dof rx ry rz
   end
   begin
      id 10
      name LeftArm
      direction 1.000000 0.000000 0.000000
      length 11.334839
      axis 0.0 0.0 -90.0 xyz
      dof rx ry rz
   end
   begin
      id 11
      name LeftForeArm
      direction 1.000000 0.000000 0.000000
      length 9.694182
      axis 0.0 0.0 -90.0 xyz
      dof ry rz rx
   end
   begin
      id 12
      name LeftHand
      direction 0.000000 0.000000 0.000000
      length 0.000000
      axis 0.0 0.0 -90.0 xyz
      dof rx ry rz
   end
   begin
      id 13
      name LeftHand_dum1
      direction 0.000000 0.000000 0.000000
      length 0.000000
      axis 0.0 0.0 -90.0 xyz
   end
   begin
      id 14
      name LeftHand_dum2
      direction 1.000000 0.000000 0.000000
      length 3.937000
      axis 0.0 0.0 -90.0 xyz
   end
   begin
      id 15
      name LeftHandThumb1
      direction 0.000000 0.000000 1.000000
      length 3.937000
      axis 0.0 0.0 -90.0 xyz
      dof rx rz ry
   end
   begin
      id 16
      name RightShoulder
      direction -1.000000 0.000000 0.000000
      length 8.349299
      axis 0.0 0.0 90.0 xyz
      dof rx ry rz
   end
   begin
      id 17
      name RightArm
      direction -1.000000 0.000000 0.000000
      length 11.334839
      axis 0.0 0.0 90.0 xyz
      dof rx ry rz
   end
   begin
      id 18
      name RightForeArm
      direction -1.000000 0.000000 0.000000
      length 9.694182
      axis 0.0 0.0 90.0 xyz
      dof ry rz rx
   end
   begin
      id 19
      name RightHand
      direction 0.000000 0.000000 0.000000
      length 0.000000
      axis 0.0 0.0 90.0 xyz
      dof rx ry rz
   end
   begin
      id 20
      name RightHand_dum1
      direction 0.000000 0.000000 0.000000
      length 0.000000
      axis 0.0 0.0 90.0 xyz
   end
   begin
      id 21
      name RightHand_dum2
      direction -1.000000 0.000000 0.000000
      length 3.937000
      axis 0.0 0.0 90.0 xyz
   end
   begin
      id 22
      name RightHandThumb1
      direction 0.000000 0.000000 1.000000
      length 3.937000
      axis 0.0 0.0 90.0 xyz
      dof rx rz ry
   end
   begin
      id 23
      name LeftUpLeg
      direction 0.000000 -1.000000 0.000000
      length 16.757176
      axis 0.0 0.0 0.0 xyz
      dof rx ry rz
   end
   begin
      id 24
      name LeftLeg
      direction 0.000000 -1.000000 0.000000
      length 16.759153
      axis 0.0 0.0 0.0 xyz
      dof rx ry rz
   end
   begin
      id 25
      name LeftFoot
      direction 0.000000 -0.258819 0.965926
      length 5.841289
      axis 15.0 0.0 0.0 xyz
      dof rx ry rz
   end
   begin
      id 26
      name LeftToeBase
      direction 0.000000 0.000000 1.000000
      length 2.952750
      axis 0.0 0.0 0.0 xyz
      dof rx ry rz
   end
   begin
      id 27
      name RightUpLeg
      direction 0.000000 -1.000000 0.000000
      length 16.757176
      axis 0.0 0.0 0.0 xyz
      dof rx ry rz
   end
   begin
      id 28
      name RightLeg
      direction 0.000000 -1.000000 0.000000
      length 16.759153
      axis 0.0 0.0 0.0 xyz
      dof rx ry rz
   end
   begin
      id 29
      name RightFoot
      direction 0.000000 -0.258819 0.965926
      length 5.841289
      axis 15.0 0.0 0.0 xyz
      dof rx ry rz
   end
   begin
      id 30
      name RightToeBase
      direction 0.000000 0.000000 1.000000
      length 2.952750
      axis 0.0 0.0 0.0 xyz
      dof rx ry rz
   end
:hierarchy
   begin
      root Spine_dum LeftUpLeg_dum RightUpLeg_dum
      Spine_dum Spine
      LeftUpLeg_dum LeftUpLeg
      RightUpLeg_dum RightUpLeg
      Spine Spine_dum1 Spine_dum2 Spine_dum3
      Spine_dum1 Head
      Spine_dum2 LeftShoulder
      Spine_dum3 RightShoulder
      LeftShoulder LeftArm
      LeftArm LeftForeArm
      LeftForeArm LeftHand
      LeftHand LeftHand_dum1 LeftHand_dum2
      LeftHand_dum1 LeftHandThumb1
      RightShoulder RightArm
      RightArm RightForeArm
      RightForeArm RightHand
      RightHand RightHand_dum1 RightHand_dum2
      RightHand_dum1 RightHandThumb1
      LeftUpLeg LeftLeg
      LeftLeg LeftFoot
      LeftFoot LeftToeBase
      RightUpLeg RightLeg
      RightLeg RightFoot
      RightFoot RightToeBase
   end

# File created by Blade
# Date/Time:  Wed Jan 28 16:58:32 2015
# Frame Rate: 120.000 fps
#------------------------------------------------------
:FULLY-SPECIFIED
:DEGREES
1610
root 10.654803 35.607058 -19.354191 187.947744 19.252252 -167.174938
Spine 19.215862 4.074520 -5.825599
Head 40.462615 11.591207 33.232751
LeftShoulder -10.153190 7.047069 24.773978
LeftArm 31.957915 -38.502857 -75.713299
LeftForeArm -9.562302 -0.000000 111.925473
LeftHand -14.950128 -0.000000 23.237424
LeftHandThumb1 -26.253704 0.000000 33.147579
RightShoulder -22.977574 -11.032917 -0.911575
RightArm 13.945967 -29.032135 71.402265
RightForeArm -7.848127 -0.000000 43.510600
RightHand -15.766041 -0.000000 1.383441
RightHandThumb1 -24.326973 -0.000000 -32.862282
LeftUpLeg -5.543961 28.404579 2.981864
LeftLeg 8.145180 -0.000000 -0.000000
LeftFoot -19.147494 15.755746 -1.858138
LeftToeBase 14.977962 -0.000000 -0.000000
RightUpLeg 6.201984 0.489073 0.138539
RightLeg 67.558682 -0.000000 -0.000000
RightFoot -9.103793 -13.253676 19.147529
RightToeBase -3.064664 -0.000000 0.000000
1611
root 10.653139 35.628362 -19.278298 188.763086 19.263846 -166.818316
Spine 19.024805 4.087152 -5.580355
Head 39.785907 11.427324 33.212361
LeftShoulder -10.198457 7.094892 24.785656
LeftArm 31.958322 -38.934843 -75.738187
LeftForeArm -9.756032 -0.000000 112.322018
LeftHand -14.972010 -0.000000 23.480346
LeftHandThumb1 -26.253704 0.000000 33.147579
RightShoulder -23.048790 -11.164655 -0.889366
RightArm 13.952552 -28.956460 71.255473
RightForeArm -7.825435 -0.000000 43.683982
RightHand -15.639777 0.000000 1.474131
RightHandThumb1 -24.326973 -0.000000 -32.862282
LeftUpLeg -6.687281 28.884490 2.887588
LeftLeg 8.532613 -0.000000 -0.000000
LeftFoot -19.159653 15.444076 -1.814477
LeftToeBase 14.993454 -0.000000 -0.000000
RightUpLeg 6.497373 0.474177 0.059218
RightLeg 67.829159 -0.000000 -0.000000
RightFoot -9.015946 -13.441669 19.248302
RightToeBase -3.017471 -0.000000 0.000000
1612
root 10.645479 35.650797 -19.201330 189.601164 19.320713 -166.482895
Spine 18.812860 4.174863 -5.364951
Head 39.071212 11.235918 33.242769
LeftShoulder -10.249540 7.159046 24.789600
LeftArm 32.009796 -39.402638 -75.814020
LeftForeArm -10.183768 -0.000000 112.744012
LeftHand -14.978862 -0.000000 23.528380
LeftHandThumb1 -26.253704 0.000000 33.147579
RightShoulder -23.153504 -11.282898 -0.833881
RightArm 13.975621 -28.886228 71.092826
RightForeArm -7.903612 -0.000000 43.838728
RightHand -15.681790 0.000000 1.345635
RightHandThumb1 -24.326973 -0.000000 -32.862282
LeftUpLeg -7.766659 29.166181 2.761303
LeftLeg 8.753133 -0.000000 -0.000000
LeftFoot -19.096984 15.284479 -1.826752
LeftToeBase 14.927308 -0.000000 -0.000000
RightUpLeg 6.784218 0.483886 -0.106268
RightLeg 68.078144 -0.000000 -0.000000
RightFoot -8.890969 -13.710680 19.294305
RightToeBase -2.875956 -0.000000 0.000000
1613
root 10.630019 35.673542 -19.123408 190.444803 19.353108 -166.162941
Spine 18.601519 4.232561 -5.130697
Head 38.352258 11.053943 33.217027
LeftShoulder -10.265098 7.200737 24.775745
LeftArm 31.990086 -39.860612 -75.848364
LeftForeArm -10.561577 -0.000000 113.228432
LeftHand -15.003040 0.000000 23.715162
LeftHandThumb1 -26.253704 0.000000 33.147579
RightShoulder -23.211176 -11.315340 -0.860876
RightArm 13.866151 -28.782774 71.018960
RightForeArm -8.031274 -0.000000 43.971783
RightHand -15.596835 -0.000000 1.447843
RightHandThumb1 -24.326973 -0.000000 -32.862282
LeftUpLeg -8.801052 29.136390 2.631746
LeftLeg 8.890060 -0.000000 -0.000000
LeftFoot -18.998919 15.331413 -1.887881
LeftToeBase 14.855981 -0.000000 -0.000000
RightUpLeg 7.087972 0.436877 -0.358264
RightLeg 68.273047 -0.000000 -0.000000
RightFoot -8.685138 -14.019721 19.405548
RightToeBase -2.953804 -0.000000 0.000000
1614
root 10.614473 35.696511 -19.046178 191.285028 19.389980 -165.850378
Spine 18.416113 4.276574 -4.919721
Head 37.678320 11.022460 33.314445
LeftShoulder -10.346620 7.196360 24.783645
LeftArm 31.967127 -40.308564 -75.940568
LeftForeArm -10.941631 0.000000 113.676171
LeftHand -14.971404 -0.000000 23.901288
LeftHandThumb1 -26.253704 0.000000 33.147579
RightShoulder -23.320444 -11.341353 -0.883384
RightArm 13.888035 -28.798911 70.886175
RightForeArm -8.043930 -0.000000 44.031021
RightHand -15.656657 -0.000000 1.523693
RightHandThumb1 -24.326973 -0.000000 -32.862282
LeftUpLeg -9.799619 29.006408 2.514326
LeftLeg 8.982075 -0.000000 -0.000000
LeftFoot -18.883743 15.439428 -1.992404
LeftToeBase 14.788628 -0.000000 -0.000000
RightUpLeg 7.434996 0.349485 -0.697039
RightLeg 68.399305 -0.000000 -0.000000
RightFoot -8.364484 -14.323013 19.275185
RightToeBase -3.275792 -0.000000 0.000000
1615
root 10.566882 35.716139 -18.967416 192.148441 19.461028 -165.661122
Spine 18.171715 4.303703 -4.800295
Head 36.965067 10.953000 33.297636
LeftShoulder -10.421782 7.242006 24.746745
LeftArm 31.958534 -40.780677 -76.049145
LeftForeArm -11.375922 0.000000 114.183132
LeftHand -15.046955 -0.000000 23.874772
LeftHandThumb1 -26.253704 0.000000 33.147579
RightShoulder -23.393935 -11.387032 -0.919862
RightArm 13.952722 -28.728964 70.707867
RightForeArm -8.180681 -0.000000 44.040207
RightHand -15.553752 -0.000000 1.665760
RightHandThumb1 -24.326973 -0.000000 -32.862282
LeftUpLeg -10.445390 27.876323 2.379851
LeftLeg 8.414696 -0.000000 -0.000000
LeftFoot -18.557629 16.258583 -2.281088
LeftToeBase 14.779751 -0.000000 -0.000000
RightUpLeg 7.728765 0.206325 -1.323626
RightLeg 68.489729 -0.000000 -0.000000
RightFoot -7.954941 -14.542711 19.013821
RightToeBase -3.378537 -0.000000 0.000000
1616
root 10.540260 35.743046 -18.889678 193.004530 19.463642 -165.356900
Spine 17.958924 4.302924 -4.580626
Head 36.312889 10.810006 33.328293
LeftShoulder -10.453904 7.273414 24.767638
LeftArm 31.879651 -41.280323 -76.187745
LeftForeArm -11.766207 -0.000000 114.742899
LeftHand -15.109408 -0.000000 24.000179
LeftHandThumb1 -26.253704 0.000000 33.147579
RightShoulder -23.385258 -11.283956 -1.013282
RightArm 13.772339 -28.662876 70.680792
RightForeArm -8.284621 -0.000000 44.058047
RightHand -15.561752 -0.000000 1.811333
RightHandThumb1 -24.326973 -0.000000 -32.862282
LeftUpLeg -11.459392 27.608616 2.291709
LeftLeg 8.535674 -0.000000 -0.000000
LeftFoot -18.400046 16.394013 -2.411136
LeftToeBase 14.669629 -0.000000 -0.000000
RightUpLeg 8.186473 0.103054 -1.759531
RightLeg 68.377536 -0.000000 -0.000000
RightFoot -7.504980 -14.815244 18.822159
RightToeBase -3.583598 -0.000000 0.000000
1617
root 10.519998 35.768373 -18.817797 193.822351 19.513685 -165.006567
Spine 17.815695 4.347811 -4.339185
Head 35.557724 10.621220 33.307620
LeftShoulder -10.557872 7.349253 24.795517
LeftArm 31.964423 -41.767175 -76.507882
LeftForeArm -12.185270 0.000000 115.285445
LeftHand -15.173595 -0.000000 23.933077
LeftHandThumb1 -26.253704 0.000000 33.147579
RightShoulder -23.378231 -11.188335 -1.124443
RightArm 13.674237 -28.618975 70.628470
RightForeArm -8.392089 0.000000 44.013357
RightHand -15.551125 -0.000000 2.032498
RightHandThumb1 -24.326973 -0.000000 -32.862282
LeftUpLeg -12.455327 27.558285 2.245286
LeftLeg 8.737877 -0.000000 -0.000000
LeftFoot -18.317009 16.450011 -2.506349
LeftToeBase 14.681336 -0.000000 -0.000000
RightUpLeg 8.712268 -0.059426 -2.300849
RightLeg 68.219501 -0.000000 -0.000000
RightFoot -6.950936 -14.980652 18.747304
RightToeBase -3.638833 -0.000000 0.000000
